#N canvas 140 157 942 516 10;
#X obj 712 40 cnv 15 200 120 empty empty empty 20 12 0 14 -261682 -66577
0;
#X floatatom 731 108 5 1000 5000 0 - dist -;
#N canvas 329 131 603 500 pajarito 0;
#X obj 392 70 osc~;
#X obj 392 254 +~;
#X obj 392 288 osc~;
#X text 422 69 moduladora;
#X text 423 286 portadora;
#X obj 392 193 *~;
#X obj 407 128 line~;
#X obj 407 154 *~ 2000;
#X obj 407 350 line~;
#X obj 392 387 *~;
#X obj 392 413 *~;
#X text 390 47 Freq moduladora;
#X text 405 234 Freq Portadora;
#X text 418 412 Volumen;
#X obj 392 449 outlet~;
#X obj 213 232 hsl 80 15 2000 8000 0 0 empty empty frecuencia_portadora
-2 -8 0 10 -262144 -1 -1 7340 1;
#X floatatom 303 232 5 0 0 1 _Hz - -;
#X obj 215 97 hsl 80 15 5 20 0 0 empty empty frecuencia_moduladora
-2 -8 0 10 -262144 -1 -1 7900 1;
#X floatatom 304 96 4 0 0 1 _Hz - -;
#X floatatom 306 367 5 0 0 1 _ms - -;
#X obj 216 368 hsl 80 15 300 1500 0 1 empty empty duraci贸n -2 -8 0
10 -262144 -1 -1 5747 1;
#X text 211 117 amplitud_moduladora;
#X msg 211 135 duration \$1;
#X obj 213 136 envgen 128 64 1 0 amp_x2 amp_m_e;
#X text 208 256 amplitud_portadora;
#X msg 211 278 duration \$1;
#X obj 213 277 envgen 128 64 1 0 amp_x2 amp_p_e;
#X obj 292 396 bng 25 250 50 0 empty empty Play 30 12 0 10 -262144
-1 -1;
#X text 407 105 Amplitud Moduladora;
#X text 406 329 Amplitud Portadora;
#X text 202 449 FMSimple con GUI | JL_2021;
#X msg 468 374 1;
#X obj 468 350 loadbang;
#X obj 507 374 inlet;
#X obj 213 396 bng 25 250 50 0 empty empty Random 30 12 0 10 -262144
-1 -1;
#X obj 82 138 + 5;
#X obj 82 112 random 21;
#X obj 80 200 random 6001;
#X obj 80 225 + 2000;
#X obj 78 314 + 300;
#X obj 78 417 loadbang;
#X obj 78 287 random 1200;
#X msg 153 142 bang;
#X obj 77 361 inlet;
#X text 114 360 Play;
#X text 211 57 Pajarito v2 | JL_2021;
#X obj 85 391 inlet;
#X text 122 390 Random;
#X connect 0 0 5 0;
#X connect 1 0 2 0;
#X connect 2 0 9 0;
#X connect 5 0 1 0;
#X connect 6 0 7 0;
#X connect 7 0 5 1;
#X connect 8 0 9 1;
#X connect 9 0 10 0;
#X connect 10 0 14 0;
#X connect 15 0 16 0;
#X connect 16 0 1 1;
#X connect 17 0 18 0;
#X connect 18 0 0 0;
#X connect 19 0 25 0;
#X connect 19 0 22 0;
#X connect 20 0 19 0;
#X connect 22 0 23 0;
#X connect 23 0 6 0;
#X connect 25 0 26 0;
#X connect 26 0 8 0;
#X connect 27 0 26 0;
#X connect 27 0 23 0;
#X connect 31 0 10 1;
#X connect 32 0 31 0;
#X connect 33 0 10 1;
#X connect 34 0 42 0;
#X connect 35 0 17 0;
#X connect 36 0 35 0;
#X connect 37 0 38 0;
#X connect 38 0 15 0;
#X connect 39 0 20 0;
#X connect 40 0 34 0;
#X connect 41 0 39 0;
#X connect 42 0 41 0;
#X connect 42 0 36 0;
#X connect 42 0 37 0;
#X connect 43 0 27 0;
#X connect 46 0 34 0;
#X coords 0 -1 1 1 160 380 2 200 50;
#X restore 20 40 pd pajarito;
#N canvas 329 132 603 500 pajarito 0;
#X obj 392 70 osc~;
#X obj 392 254 +~;
#X obj 392 288 osc~;
#X text 422 69 moduladora;
#X text 423 286 portadora;
#X obj 392 193 *~;
#X obj 407 128 line~;
#X obj 407 154 *~ 2000;
#X obj 407 350 line~;
#X obj 392 387 *~;
#X obj 392 413 *~;
#X text 390 47 Freq moduladora;
#X text 405 234 Freq Portadora;
#X text 418 412 Volumen;
#X obj 392 449 outlet~;
#X obj 213 232 hsl 80 15 2000 8000 0 0 empty empty frecuencia_portadora
-2 -8 0 10 -262144 -1 -1 4973 1;
#X floatatom 303 232 5 0 0 1 _Hz - -;
#X obj 215 97 hsl 80 15 5 20 0 0 empty empty frecuencia_moduladora
-2 -8 0 10 -262144 -1 -1 7900 1;
#X floatatom 304 96 4 0 0 1 _Hz - -;
#X floatatom 306 367 5 0 0 1 _ms - -;
#X obj 216 368 hsl 80 15 300 1500 0 1 empty empty duraci贸n -2 -8 0
10 -262144 -1 -1 4470 1;
#X text 211 117 amplitud_moduladora;
#X msg 211 135 duration \$1;
#X obj 213 136 envgen 128 64 1 0 amp_x2 amp_m_e;
#X text 208 256 amplitud_portadora;
#X msg 211 278 duration \$1;
#X obj 213 277 envgen 128 64 1 0 amp_x2 amp_p_e;
#X obj 292 396 bng 25 250 50 0 empty empty Play 30 12 0 10 -262144
-1 -1;
#X text 407 105 Amplitud Moduladora;
#X text 406 329 Amplitud Portadora;
#X text 202 449 FMSimple con GUI | JL_2021;
#X msg 468 374 1;
#X obj 468 350 loadbang;
#X obj 507 374 inlet;
#X obj 213 396 bng 25 250 50 0 empty empty Random 30 12 0 10 -262144
-1 -1;
#X obj 82 138 + 5;
#X obj 82 112 random 21;
#X obj 80 200 random 6001;
#X obj 80 225 + 2000;
#X obj 78 314 + 300;
#X obj 78 287 random 1200;
#X msg 153 142 bang;
#X text 211 57 Pajarito v2 | JL_2021;
#X obj 78 412 loadbang;
#X obj 77 356 inlet;
#X text 114 355 Play;
#X obj 85 386 inlet;
#X text 122 385 Random;
#X connect 0 0 5 0;
#X connect 1 0 2 0;
#X connect 2 0 9 0;
#X connect 5 0 1 0;
#X connect 6 0 7 0;
#X connect 7 0 5 1;
#X connect 8 0 9 1;
#X connect 9 0 10 0;
#X connect 10 0 14 0;
#X connect 15 0 16 0;
#X connect 16 0 1 1;
#X connect 17 0 18 0;
#X connect 18 0 0 0;
#X connect 19 0 25 0;
#X connect 19 0 22 0;
#X connect 20 0 19 0;
#X connect 22 0 23 0;
#X connect 23 0 6 0;
#X connect 25 0 26 0;
#X connect 26 0 8 0;
#X connect 27 0 26 0;
#X connect 27 0 23 0;
#X connect 31 0 10 1;
#X connect 32 0 31 0;
#X connect 33 0 10 1;
#X connect 34 0 41 0;
#X connect 35 0 17 0;
#X connect 36 0 35 0;
#X connect 37 0 38 0;
#X connect 38 0 15 0;
#X connect 39 0 20 0;
#X connect 40 0 39 0;
#X connect 41 0 40 0;
#X connect 41 0 36 0;
#X connect 41 0 37 0;
#X connect 43 0 34 0;
#X connect 44 0 27 0;
#X connect 46 0 34 0;
#X coords 0 -1 1 1 160 380 2 200 50;
#X restore 195 40 pd pajarito;
#N canvas 606 62 603 500 pajarito 0;
#X obj 392 70 osc~;
#X obj 392 254 +~;
#X obj 392 288 osc~;
#X text 422 69 moduladora;
#X text 423 286 portadora;
#X obj 392 193 *~;
#X obj 407 128 line~;
#X obj 407 154 *~ 2000;
#X obj 407 350 line~;
#X obj 392 387 *~;
#X obj 392 413 *~;
#X text 390 47 Freq moduladora;
#X text 405 234 Freq Portadora;
#X text 418 412 Volumen;
#X obj 392 449 outlet~;
#X obj 213 232 hsl 80 15 2000 8000 0 0 empty empty frecuencia_portadora
-2 -8 0 10 -262144 -1 -1 2407 1;
#X floatatom 303 232 5 0 0 1 _Hz - -;
#X obj 215 97 hsl 80 15 5 20 0 0 empty empty frecuencia_moduladora
-2 -8 0 10 -262144 -1 -1 5267 1;
#X floatatom 304 96 4 0 0 1 _Hz - -;
#X floatatom 306 367 5 0 0 1 _ms - -;
#X obj 216 368 hsl 80 15 300 1500 0 1 empty empty duraci贸n -2 -8 0
10 -262144 -1 -1 441 1;
#X text 211 117 amplitud_moduladora;
#X msg 211 135 duration \$1;
#X obj 213 136 envgen 128 64 1 0 amp_x2 amp_m_e;
#X text 208 256 amplitud_portadora;
#X msg 211 278 duration \$1;
#X obj 213 277 envgen 128 64 1 0 amp_x2 amp_p_e;
#X obj 292 396 bng 25 250 50 0 empty empty Play 30 12 0 10 -262144
-1 -1;
#X text 407 105 Amplitud Moduladora;
#X text 406 329 Amplitud Portadora;
#X text 202 449 FMSimple con GUI | JL_2021;
#X msg 468 374 1;
#X obj 468 350 loadbang;
#X obj 507 374 inlet;
#X obj 213 396 bng 25 250 50 0 empty empty Random 30 12 0 10 -262144
-1 -1;
#X obj 82 138 + 5;
#X obj 82 112 random 21;
#X obj 80 200 random 6001;
#X obj 80 225 + 2000;
#X obj 78 314 + 300;
#X obj 78 287 random 1200;
#X msg 153 142 bang;
#X text 211 57 Pajarito v2 | JL_2021;
#X obj 75 413 loadbang;
#X obj 74 357 inlet;
#X text 111 356 Play;
#X obj 82 387 inlet;
#X text 119 386 Random;
#X connect 0 0 5 0;
#X connect 1 0 2 0;
#X connect 2 0 9 0;
#X connect 5 0 1 0;
#X connect 6 0 7 0;
#X connect 7 0 5 1;
#X connect 8 0 9 1;
#X connect 9 0 10 0;
#X connect 10 0 14 0;
#X connect 15 0 16 0;
#X connect 16 0 1 1;
#X connect 17 0 18 0;
#X connect 18 0 0 0;
#X connect 19 0 25 0;
#X connect 19 0 22 0;
#X connect 20 0 19 0;
#X connect 22 0 23 0;
#X connect 23 0 6 0;
#X connect 25 0 26 0;
#X connect 26 0 8 0;
#X connect 27 0 26 0;
#X connect 27 0 23 0;
#X connect 31 0 10 1;
#X connect 32 0 31 0;
#X connect 33 0 10 1;
#X connect 34 0 41 0;
#X connect 35 0 17 0;
#X connect 36 0 35 0;
#X connect 37 0 38 0;
#X connect 38 0 15 0;
#X connect 39 0 20 0;
#X connect 40 0 39 0;
#X connect 41 0 40 0;
#X connect 41 0 36 0;
#X connect 41 0 37 0;
#X connect 43 0 34 0;
#X connect 44 0 27 0;
#X connect 46 0 34 0;
#X coords 0 -1 1 1 160 380 2 200 50;
#X restore 368 40 pd pajarito;
#N canvas 329 132 603 500 pajarito 0;
#X obj 392 70 osc~;
#X obj 392 254 +~;
#X obj 392 288 osc~;
#X text 422 69 moduladora;
#X text 423 286 portadora;
#X obj 392 193 *~;
#X obj 407 128 line~;
#X obj 407 154 *~ 2000;
#X obj 407 350 line~;
#X obj 392 387 *~;
#X obj 392 413 *~;
#X text 390 47 Freq moduladora;
#X text 405 234 Freq Portadora;
#X text 418 412 Volumen;
#X obj 392 449 outlet~;
#X obj 213 232 hsl 80 15 2000 8000 0 0 empty empty frecuencia_portadora
-2 -8 0 10 -262144 -1 -1 1251 1;
#X floatatom 303 232 5 0 0 1 _Hz - -;
#X obj 215 97 hsl 80 15 5 20 0 0 empty empty frecuencia_moduladora
-2 -8 0 10 -262144 -1 -1 3160 1;
#X floatatom 304 96 4 0 0 1 _Hz - -;
#X floatatom 306 367 5 0 0 1 _ms - -;
#X obj 216 368 hsl 80 15 300 1500 0 1 empty empty duraci贸n -2 -8 0
10 -262144 -1 -1 5833 1;
#X text 211 117 amplitud_moduladora;
#X msg 211 135 duration \$1;
#X obj 213 136 envgen 128 64 1 0 amp_x2 amp_m_e;
#X text 208 256 amplitud_portadora;
#X msg 211 278 duration \$1;
#X obj 213 277 envgen 128 64 1 0 amp_x2 amp_p_e;
#X obj 292 396 bng 25 250 50 0 empty empty Play 30 12 0 10 -262144
-1 -1;
#X text 407 105 Amplitud Moduladora;
#X text 406 329 Amplitud Portadora;
#X text 202 449 FMSimple con GUI | JL_2021;
#X msg 468 374 1;
#X obj 468 350 loadbang;
#X obj 507 374 inlet;
#X obj 213 396 bng 25 250 50 0 empty empty Random 30 12 0 10 -262144
-1 -1;
#X obj 82 138 + 5;
#X obj 82 112 random 21;
#X obj 80 200 random 6001;
#X obj 80 225 + 2000;
#X obj 78 314 + 300;
#X obj 78 287 random 1200;
#X msg 153 142 bang;
#X text 211 57 Pajarito v2 | JL_2021;
#X obj 79 417 loadbang;
#X obj 78 361 inlet;
#X text 115 360 Play;
#X obj 86 391 inlet;
#X text 123 390 Random;
#X connect 0 0 5 0;
#X connect 1 0 2 0;
#X connect 2 0 9 0;
#X connect 5 0 1 0;
#X connect 6 0 7 0;
#X connect 7 0 5 1;
#X connect 8 0 9 1;
#X connect 9 0 10 0;
#X connect 10 0 14 0;
#X connect 15 0 16 0;
#X connect 16 0 1 1;
#X connect 17 0 18 0;
#X connect 18 0 0 0;
#X connect 19 0 25 0;
#X connect 19 0 22 0;
#X connect 20 0 19 0;
#X connect 22 0 23 0;
#X connect 23 0 6 0;
#X connect 25 0 26 0;
#X connect 26 0 8 0;
#X connect 27 0 26 0;
#X connect 27 0 23 0;
#X connect 31 0 10 1;
#X connect 32 0 31 0;
#X connect 33 0 10 1;
#X connect 34 0 41 0;
#X connect 35 0 17 0;
#X connect 36 0 35 0;
#X connect 37 0 38 0;
#X connect 38 0 15 0;
#X connect 39 0 20 0;
#X connect 40 0 39 0;
#X connect 41 0 40 0;
#X connect 41 0 36 0;
#X connect 41 0 37 0;
#X connect 43 0 34 0;
#X connect 44 0 27 0;
#X connect 46 0 34 0;
#X coords 0 -1 1 1 160 380 2 200 50;
#X restore 540 40 pd pajarito;
#N canvas 405 28 318 360 randomTrigger 0;
#X obj -202 59 tgl 30 0 empty empty empty 17 7 0 10 -262144 -1 -1 1
1;
#X obj -205 215 bng 15 250 50 0 empty empty empty 17 7 0 10 -262144
-1 -1;
#X obj -178 215 bng 15 250 50 0 empty empty empty 17 7 0 10 -262144
-1 -1;
#X obj -149 215 bng 15 250 50 0 empty empty empty 17 7 0 10 -262144
-1 -1;
#X obj -119 215 bng 15 250 50 0 empty empty empty 17 7 0 10 -262144
-1 -1;
#X obj -205 174 sel 0 1 2 3;
#X floatatom -177 150 5 0 0 0 - - -;
#X obj -115 61 bng 15 250 50 0 empty empty empty 17 7 0 10 -262144
-1 -1;
#X obj -202 96 metro 1000;
#X obj -115 115 + 1000;
#X obj -202 16 inlet;
#X obj -205 123 drunk 3;
#X obj -17 88 inlet;
#X text 21 88 Separaci贸n;
#X obj -115 87 random 2000;
#X text -72 323 RandomTrigger v2 | JL_2021;
#X obj -205 244 s rt0;
#X obj -178 269 s rt1;
#X obj -149 297 s rt2;
#X obj -119 322 s rt3;
#X text -161 17 ON/OFF;
#X connect 0 0 8 0;
#X connect 1 0 16 0;
#X connect 2 0 17 0;
#X connect 3 0 18 0;
#X connect 4 0 19 0;
#X connect 5 0 1 0;
#X connect 5 1 2 0;
#X connect 5 2 3 0;
#X connect 5 3 4 0;
#X connect 7 0 14 0;
#X connect 8 0 7 0;
#X connect 8 0 11 0;
#X connect 9 0 8 1;
#X connect 10 0 0 0;
#X connect 11 0 5 0;
#X connect 11 0 6 0;
#X connect 12 0 9 1;
#X connect 14 0 9 0;
#X restore 719 133 pd randomTrigger;
#X obj 732 80 bng 20 250 50 0 rp empty empty 17 7 0 10 -262144 -1 -1
;
#X text 743 50 Play Bandada;
#X text 756 82 Random Pajarito(s);
#X obj 719 48 tgl 20 0 empty empty empty 17 7 0 10 -262144 -1 -1 1
1;
#N canvas 0 22 287 496 pan_extended 0;
#N canvas 711 22 505 426 pan 0;
#X obj 259 247 sin;
#X obj 188 247 cos;
#X obj 37 316 *~;
#X obj 120 316 *~;
#X obj 235 211 * 0.0174533;
#X obj 77 248 /~;
#X obj 77 177 lop~;
#X obj 77 64 inlet~;
#X text 80 32 audio;
#X obj 267 66 inlet;
#X obj 196 64 inlet;
#X text 263 34 ngulo;
#X text 182 31 distancia;
#X obj 36 353 outlet~;
#X obj 119 353 outlet~;
#X obj 114 138 maxlib/scale 1 10 8000 1500;
#X text 340 346 Pablo Cetta;
#X connect 0 0 3 1;
#X connect 1 0 2 1;
#X connect 2 0 13 0;
#X connect 3 0 14 0;
#X connect 4 0 1 0;
#X connect 4 0 0 0;
#X connect 5 0 2 0;
#X connect 5 0 3 0;
#X connect 6 0 5 0;
#X connect 7 0 6 0;
#X connect 9 0 4 0;
#X connect 10 0 15 0;
#X connect 10 0 5 1;
#X connect 15 0 6 1;
#X restore 17 374 pd pan;
#X obj 17 17 inlet~;
#X obj 40 91 hsl 75 10 10 1 0 0 empty empty empty -2 -8 0 10 -262144
-1 -1 5756 1;
#X text 36 73 Velocidad mov.;
#X text 36 52 AutoPan | JL_2021;
#X obj 40 221 sin;
#X floatatom 40 132 0 0 0 0 - - -;
#X floatatom 40 250 0 0 0 0 - - -;
#X obj 40 172 * 6.28319;
#X obj 40 152 / 360;
#X text 103 172 2 x Pi;
#X floatatom 40 192 8 0 0 0 - - -;
#X text 103 192 Radian;
#X obj 175 194 metro 1000;
#X obj 40 283 * 90;
#X obj 175 136 loadbang;
#X floatatom 40 339 5 0 0 0 - - -;
#X floatatom 80 339 5 0 0 0 - - -;
#X obj 40 310 abs;
#X obj 124 80 bng 20 250 50 0 empty empty empty 17 7 0 10 -262144 -1
-1;
#X obj 162 47 loadbang;
#X obj 175 166 tgl 15 0 empty empty empty 17 7 0 10 -262144 -1 -1 1
1;
#X obj 175 224 bng 15 250 50 0 empty empty empty 17 7 0 10 -262144
-1 -1;
#X obj 175 252 counter;
#X floatatom 232 135 5 0 0 0 - - -;
#X floatatom 175 280 5 0 0 0 - - -;
#X obj 162 70 random 9;
#X obj 162 94 + 1;
#X obj 232 164 * 100;
#X obj 92 311 / 10;
#X obj 93 281 drunk 70;
#X obj 17 411 throw~ left;
#X obj 50 448 throw~ right;
#X obj 15 448 dac~;
#X connect 0 0 31 0;
#X connect 0 1 32 0;
#X connect 1 0 0 0;
#X connect 2 0 24 0;
#X connect 5 0 7 0;
#X connect 6 0 9 0;
#X connect 7 0 14 0;
#X connect 8 0 11 0;
#X connect 9 0 8 0;
#X connect 11 0 5 0;
#X connect 13 0 22 0;
#X connect 14 0 18 0;
#X connect 15 0 21 0;
#X connect 16 0 0 2;
#X connect 17 0 0 1;
#X connect 18 0 16 0;
#X connect 19 0 26 0;
#X connect 20 0 26 0;
#X connect 21 0 13 0;
#X connect 22 0 23 0;
#X connect 22 0 30 0;
#X connect 23 0 25 0;
#X connect 24 0 28 0;
#X connect 25 0 6 0;
#X connect 26 0 27 0;
#X connect 27 0 2 0;
#X connect 28 0 13 1;
#X connect 29 0 17 0;
#X connect 30 0 29 0;
#X coords 0 -1 1 1 120 60 2 30 50;
#X restore 20 437 pd pan_extended;
#X obj 711 166 cnv 15 200 170 empty empty empty 20 12 0 14 -204786
-66577 0;
#X obj 726 309 dac~;
#X obj 726 175 catch~ left;
#X obj 812 175 catch~ right;
#X floatatom 857 202 5 0 100 0 - eco -;
#N canvas 726 22 287 496 pan_extended 0;
#N canvas 711 22 505 426 pan 0;
#X obj 259 247 sin;
#X obj 188 247 cos;
#X obj 37 316 *~;
#X obj 120 316 *~;
#X obj 235 211 * 0.0174533;
#X obj 77 248 /~;
#X obj 77 177 lop~;
#X obj 77 64 inlet~;
#X text 80 32 audio;
#X obj 267 66 inlet;
#X obj 196 64 inlet;
#X text 263 34 ngulo;
#X text 182 31 distancia;
#X obj 36 353 outlet~;
#X obj 119 353 outlet~;
#X obj 114 138 maxlib/scale 1 10 8000 1500;
#X text 340 346 Pablo Cetta;
#X connect 0 0 3 1;
#X connect 1 0 2 1;
#X connect 2 0 13 0;
#X connect 3 0 14 0;
#X connect 4 0 1 0;
#X connect 4 0 0 0;
#X connect 5 0 2 0;
#X connect 5 0 3 0;
#X connect 6 0 5 0;
#X connect 7 0 6 0;
#X connect 9 0 4 0;
#X connect 10 0 15 0;
#X connect 10 0 5 1;
#X connect 15 0 6 1;
#X restore 17 374 pd pan;
#X obj 17 17 inlet~;
#X obj 40 91 hsl 75 10 10 1 0 0 empty empty empty -2 -8 0 10 -262144
-1 -1 822 1;
#X text 36 73 Velocidad mov.;
#X text 36 52 AutoPan | JL_2021;
#X obj 40 221 sin;
#X floatatom 40 132 0 0 0 0 - - -;
#X floatatom 40 250 0 0 0 0 - - -;
#X obj 40 172 * 6.28319;
#X obj 40 152 / 360;
#X text 103 172 2 x Pi;
#X floatatom 40 192 8 0 0 0 - - -;
#X text 103 192 Radian;
#X obj 175 194 metro 1000;
#X obj 40 283 * 90;
#X obj 175 136 loadbang;
#X floatatom 40 339 5 0 0 0 - - -;
#X floatatom 80 339 5 0 0 0 - - -;
#X obj 40 310 abs;
#X obj 124 80 bng 20 250 50 0 empty empty empty 17 7 0 10 -262144 -1
-1;
#X obj 162 47 loadbang;
#X obj 175 166 tgl 15 0 empty empty empty 17 7 0 10 -262144 -1 -1 1
1;
#X obj 175 224 bng 15 250 50 0 empty empty empty 17 7 0 10 -262144
-1 -1;
#X obj 175 252 counter;
#X floatatom 232 135 5 0 0 0 - - -;
#X floatatom 175 280 5 0 0 0 - - -;
#X obj 162 70 random 9;
#X obj 162 94 + 1;
#X obj 232 164 * 100;
#X obj 92 311 / 10;
#X obj 93 281 drunk 70;
#X obj 17 411 throw~ left;
#X obj 50 448 throw~ right;
#X obj 15 448 dac~;
#X connect 0 0 31 0;
#X connect 0 1 32 0;
#X connect 1 0 0 0;
#X connect 2 0 24 0;
#X connect 5 0 7 0;
#X connect 6 0 9 0;
#X connect 7 0 14 0;
#X connect 8 0 11 0;
#X connect 9 0 8 0;
#X connect 11 0 5 0;
#X connect 13 0 22 0;
#X connect 14 0 18 0;
#X connect 15 0 21 0;
#X connect 16 0 0 2;
#X connect 17 0 0 1;
#X connect 18 0 16 0;
#X connect 19 0 26 0;
#X connect 20 0 26 0;
#X connect 21 0 13 0;
#X connect 22 0 23 0;
#X connect 22 0 30 0;
#X connect 23 0 25 0;
#X connect 24 0 28 0;
#X connect 25 0 6 0;
#X connect 26 0 27 0;
#X connect 27 0 2 0;
#X connect 28 0 13 1;
#X connect 29 0 17 0;
#X connect 30 0 29 0;
#X coords 0 -1 1 1 120 60 2 30 50;
#X restore 195 438 pd pan_extended;
#N canvas 1092 22 287 496 pan_extended 0;
#N canvas 711 22 505 426 pan 0;
#X obj 259 247 sin;
#X obj 188 247 cos;
#X obj 37 316 *~;
#X obj 120 316 *~;
#X obj 235 211 * 0.0174533;
#X obj 77 248 /~;
#X obj 77 177 lop~;
#X obj 77 64 inlet~;
#X text 80 32 audio;
#X obj 267 66 inlet;
#X obj 196 64 inlet;
#X text 263 34 ngulo;
#X text 182 31 distancia;
#X obj 36 353 outlet~;
#X obj 119 353 outlet~;
#X obj 114 138 maxlib/scale 1 10 8000 1500;
#X text 340 346 Pablo Cetta;
#X connect 0 0 3 1;
#X connect 1 0 2 1;
#X connect 2 0 13 0;
#X connect 3 0 14 0;
#X connect 4 0 1 0;
#X connect 4 0 0 0;
#X connect 5 0 2 0;
#X connect 5 0 3 0;
#X connect 6 0 5 0;
#X connect 7 0 6 0;
#X connect 9 0 4 0;
#X connect 10 0 15 0;
#X connect 10 0 5 1;
#X connect 15 0 6 1;
#X restore 17 374 pd pan;
#X obj 17 17 inlet~;
#X obj 40 91 hsl 75 10 10 1 0 0 empty empty empty -2 -8 0 10 -262144
-1 -1 3289 1;
#X text 36 73 Velocidad mov.;
#X text 36 52 AutoPan | JL_2021;
#X obj 40 221 sin;
#X floatatom 40 132 0 0 0 0 - - -;
#X floatatom 40 250 0 0 0 0 - - -;
#X obj 40 172 * 6.28319;
#X obj 40 152 / 360;
#X text 103 172 2 x Pi;
#X floatatom 40 192 8 0 0 0 - - -;
#X text 103 192 Radian;
#X obj 175 194 metro 1000;
#X obj 40 283 * 90;
#X obj 175 136 loadbang;
#X floatatom 40 339 5 0 0 0 - - -;
#X floatatom 80 339 5 0 0 0 - - -;
#X obj 40 310 abs;
#X obj 124 80 bng 20 250 50 0 empty empty empty 17 7 0 10 -262144 -1
-1;
#X obj 162 47 loadbang;
#X obj 175 166 tgl 15 0 empty empty empty 17 7 0 10 -262144 -1 -1 1
1;
#X obj 175 224 bng 15 250 50 0 empty empty empty 17 7 0 10 -262144
-1 -1;
#X obj 175 252 counter;
#X floatatom 232 135 5 0 0 0 - - -;
#X floatatom 175 280 5 0 0 0 - - -;
#X obj 162 70 random 9;
#X obj 162 94 + 1;
#X obj 232 164 * 100;
#X obj 92 311 / 10;
#X obj 93 281 drunk 70;
#X obj 17 411 throw~ left;
#X obj 50 448 throw~ right;
#X obj 15 448 dac~;
#X connect 0 0 31 0;
#X connect 0 1 32 0;
#X connect 1 0 0 0;
#X connect 2 0 24 0;
#X connect 5 0 7 0;
#X connect 6 0 9 0;
#X connect 7 0 14 0;
#X connect 8 0 11 0;
#X connect 9 0 8 0;
#X connect 11 0 5 0;
#X connect 13 0 22 0;
#X connect 14 0 18 0;
#X connect 15 0 21 0;
#X connect 16 0 0 2;
#X connect 17 0 0 1;
#X connect 18 0 16 0;
#X connect 19 0 26 0;
#X connect 20 0 26 0;
#X connect 21 0 13 0;
#X connect 22 0 23 0;
#X connect 22 0 30 0;
#X connect 23 0 25 0;
#X connect 24 0 28 0;
#X connect 25 0 6 0;
#X connect 26 0 27 0;
#X connect 27 0 2 0;
#X connect 28 0 13 1;
#X connect 29 0 17 0;
#X connect 30 0 29 0;
#X coords 0 -1 1 1 120 60 2 30 50;
#X restore 368 436 pd pan_extended;
#N canvas 1487 22 287 496 pan_extended 0;
#N canvas 711 22 505 426 pan 0;
#X obj 259 247 sin;
#X obj 188 247 cos;
#X obj 37 316 *~;
#X obj 120 316 *~;
#X obj 235 211 * 0.0174533;
#X obj 77 248 /~;
#X obj 77 177 lop~;
#X obj 77 64 inlet~;
#X text 80 32 audio;
#X obj 267 66 inlet;
#X obj 196 64 inlet;
#X text 263 34 ngulo;
#X text 182 31 distancia;
#X obj 36 353 outlet~;
#X obj 119 353 outlet~;
#X obj 114 138 maxlib/scale 1 10 8000 1500;
#X text 340 346 Pablo Cetta;
#X connect 0 0 3 1;
#X connect 1 0 2 1;
#X connect 2 0 13 0;
#X connect 3 0 14 0;
#X connect 4 0 1 0;
#X connect 4 0 0 0;
#X connect 5 0 2 0;
#X connect 5 0 3 0;
#X connect 6 0 5 0;
#X connect 7 0 6 0;
#X connect 9 0 4 0;
#X connect 10 0 15 0;
#X connect 10 0 5 1;
#X connect 15 0 6 1;
#X restore 17 374 pd pan;
#X obj 17 17 inlet~;
#X obj 40 91 hsl 75 10 10 1 0 0 empty empty empty -2 -8 0 10 -262144
-1 -1 7400 1;
#X text 36 73 Velocidad mov.;
#X text 36 52 AutoPan | JL_2021;
#X obj 40 221 sin;
#X floatatom 40 132 0 0 0 0 - - -;
#X floatatom 40 250 0 0 0 0 - - -;
#X obj 40 172 * 6.28319;
#X obj 40 152 / 360;
#X text 103 172 2 x Pi;
#X floatatom 40 192 8 0 0 0 - - -;
#X text 103 192 Radian;
#X obj 175 194 metro 1000;
#X obj 40 283 * 90;
#X obj 175 136 loadbang;
#X floatatom 40 339 5 0 0 0 - - -;
#X floatatom 80 339 5 0 0 0 - - -;
#X obj 40 310 abs;
#X obj 124 80 bng 20 250 50 0 empty empty empty 17 7 0 10 -262144 -1
-1;
#X obj 162 47 loadbang;
#X obj 175 166 tgl 15 0 empty empty empty 17 7 0 10 -262144 -1 -1 1
1;
#X obj 175 224 bng 15 250 50 0 empty empty empty 17 7 0 10 -262144
-1 -1;
#X obj 175 252 counter;
#X floatatom 232 135 5 0 0 0 - - -;
#X floatatom 175 280 5 0 0 0 - - -;
#X obj 162 70 random 9;
#X obj 162 94 + 1;
#X obj 232 164 * 100;
#X obj 92 311 / 10;
#X obj 93 281 drunk 70;
#X obj 17 411 throw~ left;
#X obj 50 448 throw~ right;
#X obj 15 448 dac~;
#X connect 0 0 31 0;
#X connect 0 1 32 0;
#X connect 1 0 0 0;
#X connect 2 0 24 0;
#X connect 5 0 7 0;
#X connect 6 0 9 0;
#X connect 7 0 14 0;
#X connect 8 0 11 0;
#X connect 9 0 8 0;
#X connect 11 0 5 0;
#X connect 13 0 22 0;
#X connect 14 0 18 0;
#X connect 15 0 21 0;
#X connect 16 0 0 2;
#X connect 17 0 0 1;
#X connect 18 0 16 0;
#X connect 19 0 26 0;
#X connect 20 0 26 0;
#X connect 21 0 13 0;
#X connect 22 0 23 0;
#X connect 22 0 30 0;
#X connect 23 0 25 0;
#X connect 24 0 28 0;
#X connect 25 0 6 0;
#X connect 26 0 27 0;
#X connect 27 0 2 0;
#X connect 28 0 13 1;
#X connect 29 0 17 0;
#X connect 30 0 29 0;
#X coords 0 -1 1 1 120 60 2 30 50;
#X restore 540 436 pd pan_extended;
#X obj 96 18 r rp;
#X obj 271 18 r rp;
#X obj 444 17 r rp;
#X obj 616 17 r rp;
#X obj 20 18 r rt0;
#X obj 368 18 r rt2;
#X obj 540 18 r rt3;
#X obj 195 18 r rt1;
#X obj 710 441 cnv 15 200 50 empty empty empty 20 12 0 14 -228856 -66577
0;
#X text 723 450 Matias Jauregui Lorda | 2021;
#X text 722 466 TP Final | Pablo Cetta | EAS;
#X obj 769 310 hsl 120 15 0 1 0 0 vol volumen empty -2 -8 0 10 -262144
-1 -1 9520 1;
#X text 845 291 volumen;
#X text 765 108 Distancia triggers (ms);
#X obj 726 275 *~;
#X obj 741 251 r vol;
#X obj 812 276 *~;
#X obj 827 252 r vol;
#X obj 711 342 cnv 15 200 80 empty empty empty 20 12 0 14 -262130 -66577
0;
#X obj 720 348 loadbang;
#N canvas 875 441 368 300 eco_L 0;
#X obj -180 -25 lop~ 3000;
#X obj -184 -157 inlet~;
#X obj -214 58 outlet~;
#X obj -300 -26 *~;
#X obj -285 -97 loadbang;
#X floatatom -285 -50 5 0 0 0 - - -;
#X obj -180 6 *~ 0.8;
#X msg -285 -74 0.1;
#X text -302 91 Eco basado en ejercicio G.6.3 de Pablo Cetta | JL_2021
;
#X obj -180 -85 inlet;
#X obj -184 -122 delwrite~ ecoL 2000;
#X obj -180 -56 delread~ ecoL 200;
#X connect 0 0 6 0;
#X connect 0 0 3 0;
#X connect 1 0 10 0;
#X connect 3 0 10 0;
#X connect 4 0 7 0;
#X connect 5 0 3 1;
#X connect 6 0 2 0;
#X connect 7 0 5 0;
#X connect 9 0 11 0;
#X connect 11 0 0 0;
#X restore 726 229 pd eco_L;
#N canvas 875 441 368 300 eco_R 0;
#X obj -180 -25 lop~ 3000;
#X obj -184 -157 inlet~;
#X obj -214 58 outlet~;
#X obj -300 -26 *~;
#X obj -285 -97 loadbang;
#X floatatom -285 -50 5 0 0 0 - - -;
#X obj -180 6 *~ 0.8;
#X msg -285 -74 0.1;
#X text -302 91 Eco basado en ejercicio G.6.3 de Pablo Cetta | JL_2021
;
#X obj -180 -85 inlet;
#X obj -184 -122 delwrite~ ecoR 2000;
#X obj -180 -56 delread~ ecoR 200;
#X connect 0 0 6 0;
#X connect 0 0 3 0;
#X connect 1 0 10 0;
#X connect 3 0 10 0;
#X connect 4 0 7 0;
#X connect 5 0 3 1;
#X connect 6 0 2 0;
#X connect 7 0 5 0;
#X connect 9 0 11 0;
#X connect 11 0 0 0;
#X restore 812 229 pd eco_R;
#X msg 719 372 \; dist 5000 \; eco 100;
#X msg 818 355 \; dist 1500 \; eco 0 \; volumen 0.8;
#X connect 1 0 6 1;
#X connect 2 0 11 0;
#X connect 3 0 17 0;
#X connect 4 0 18 0;
#X connect 5 0 19 0;
#X connect 10 0 6 0;
#X connect 14 0 40 0;
#X connect 15 0 41 0;
#X connect 16 0 40 1;
#X connect 16 0 41 1;
#X connect 20 0 2 1;
#X connect 21 0 3 1;
#X connect 22 0 4 1;
#X connect 23 0 5 1;
#X connect 24 0 2 0;
#X connect 25 0 4 0;
#X connect 26 0 5 0;
#X connect 27 0 3 0;
#X connect 34 0 13 0;
#X connect 35 0 34 1;
#X connect 36 0 13 1;
#X connect 37 0 36 1;
#X connect 39 0 43 0;
#X connect 40 0 34 0;
#X connect 41 0 36 0;
