#N canvas 127 29 742 690 10;
#X obj 24 21 cnv 15 260 100 empty empty empty 20 12 0 14 -261682 -66577
0;
#X floatatom 73 61 5 1000 5000 0 - - -;
#N canvas 329 131 603 500 pajarito 0;
#X obj 392 70 osc~;
#X obj 392 254 +~;
#X obj 392 288 osc~;
#X text 422 69 moduladora;
#X text 423 286 portadora;
#X obj 392 193 *~;
#X obj 407 128 line~;
#X obj 407 154 *~ 2000;
#X obj 407 350 line~;
#X obj 392 387 *~;
#X obj 392 413 *~;
#X text 390 47 Freq moduladora;
#X text 405 234 Freq Portadora;
#X text 418 412 Volumen;
#X obj 392 449 outlet~;
#X obj 213 232 hsl 80 15 2000 8000 0 0 empty empty frecuencia_portadora
-2 -8 0 10 -262144 -1 -1 4964 1;
#X floatatom 303 232 5 0 0 1 _Hz - -;
#X obj 215 97 hsl 80 15 5 20 0 0 empty empty frecuencia_moduladora
-2 -8 0 10 -262144 -1 -1 3687 1;
#X floatatom 304 96 4 0 0 1 _Hz - -;
#X floatatom 306 367 5 0 0 1 _ms - -;
#X obj 216 368 hsl 80 15 300 1500 0 1 empty empty duración -2 -8 0
10 -262144 -1 -1 2403 1;
#X text 211 117 amplitud_moduladora;
#X msg 211 135 duration \$1;
#X obj 213 136 envgen 128 64 1 0 amp_x2 amp_m_e;
#X text 208 256 amplitud_portadora;
#X msg 211 278 duration \$1;
#X obj 213 277 envgen 128 64 1 0 amp_x2 amp_p_e;
#X obj 292 396 bng 25 250 50 0 empty empty Play 30 12 0 10 -262144
-1 -1;
#X text 407 105 Amplitud Moduladora;
#X text 406 329 Amplitud Portadora;
#X text 202 449 FMSimple con GUI | JL_2021;
#X msg 468 374 1;
#X obj 468 350 loadbang;
#X obj 507 374 inlet;
#X obj 213 396 bng 25 250 50 0 empty empty Random 30 12 0 10 -262144
-1 -1;
#X obj 82 138 + 5;
#X obj 82 112 random 21;
#X obj 80 200 random 6001;
#X obj 80 225 + 2000;
#X obj 78 314 + 300;
#X obj 78 417 loadbang;
#X obj 78 287 random 1200;
#X msg 153 142 bang;
#X obj 77 361 inlet;
#X text 114 360 Play;
#X text 211 57 Pajarito v2 | JL_2021;
#X obj 85 391 inlet;
#X text 122 390 Random;
#X connect 0 0 5 0;
#X connect 1 0 2 0;
#X connect 2 0 9 0;
#X connect 5 0 1 0;
#X connect 6 0 7 0;
#X connect 7 0 5 1;
#X connect 8 0 9 1;
#X connect 9 0 10 0;
#X connect 10 0 14 0;
#X connect 15 0 16 0;
#X connect 16 0 1 1;
#X connect 17 0 18 0;
#X connect 18 0 0 0;
#X connect 19 0 25 0;
#X connect 19 0 22 0;
#X connect 20 0 19 0;
#X connect 22 0 23 0;
#X connect 23 0 6 0;
#X connect 25 0 26 0;
#X connect 26 0 8 0;
#X connect 27 0 26 0;
#X connect 27 0 23 0;
#X connect 31 0 10 1;
#X connect 32 0 31 0;
#X connect 33 0 10 1;
#X connect 34 0 42 0;
#X connect 35 0 17 0;
#X connect 36 0 35 0;
#X connect 37 0 38 0;
#X connect 38 0 15 0;
#X connect 39 0 20 0;
#X connect 40 0 34 0;
#X connect 41 0 39 0;
#X connect 42 0 41 0;
#X connect 42 0 36 0;
#X connect 42 0 37 0;
#X connect 43 0 27 0;
#X connect 46 0 34 0;
#X coords 0 -1 1 1 160 380 2 200 50;
#X restore 30 157 pd pajarito;
#N canvas 329 132 603 500 pajarito 0;
#X obj 392 70 osc~;
#X obj 392 254 +~;
#X obj 392 288 osc~;
#X text 422 69 moduladora;
#X text 423 286 portadora;
#X obj 392 193 *~;
#X obj 407 128 line~;
#X obj 407 154 *~ 2000;
#X obj 407 350 line~;
#X obj 392 387 *~;
#X obj 392 413 *~;
#X text 390 47 Freq moduladora;
#X text 405 234 Freq Portadora;
#X text 418 412 Volumen;
#X obj 392 449 outlet~;
#X obj 213 232 hsl 80 15 2000 8000 0 0 empty empty frecuencia_portadora
-2 -8 0 10 -262144 -1 -1 5585 1;
#X floatatom 303 232 5 0 0 1 _Hz - -;
#X obj 215 97 hsl 80 15 5 20 0 0 empty empty frecuencia_moduladora
-2 -8 0 10 -262144 -1 -1 7900 1;
#X floatatom 304 96 4 0 0 1 _Hz - -;
#X floatatom 306 367 5 0 0 1 _ms - -;
#X obj 216 368 hsl 80 15 300 1500 0 1 empty empty duración -2 -8 0
10 -262144 -1 -1 2897 1;
#X text 211 117 amplitud_moduladora;
#X msg 211 135 duration \$1;
#X obj 213 136 envgen 128 64 1 0 amp_x2 amp_m_e;
#X text 208 256 amplitud_portadora;
#X msg 211 278 duration \$1;
#X obj 213 277 envgen 128 64 1 0 amp_x2 amp_p_e;
#X obj 292 396 bng 25 250 50 0 empty empty Play 30 12 0 10 -262144
-1 -1;
#X text 407 105 Amplitud Moduladora;
#X text 406 329 Amplitud Portadora;
#X text 202 449 FMSimple con GUI | JL_2021;
#X msg 468 374 1;
#X obj 468 350 loadbang;
#X obj 507 374 inlet;
#X obj 213 396 bng 25 250 50 0 empty empty Random 30 12 0 10 -262144
-1 -1;
#X obj 82 138 + 5;
#X obj 82 112 random 21;
#X obj 80 200 random 6001;
#X obj 80 225 + 2000;
#X obj 78 314 + 300;
#X obj 78 287 random 1200;
#X msg 153 142 bang;
#X text 211 57 Pajarito v2 | JL_2021;
#X obj 78 412 loadbang;
#X obj 77 356 inlet;
#X text 114 355 Play;
#X obj 85 386 inlet;
#X text 122 385 Random;
#X connect 0 0 5 0;
#X connect 1 0 2 0;
#X connect 2 0 9 0;
#X connect 5 0 1 0;
#X connect 6 0 7 0;
#X connect 7 0 5 1;
#X connect 8 0 9 1;
#X connect 9 0 10 0;
#X connect 10 0 14 0;
#X connect 15 0 16 0;
#X connect 16 0 1 1;
#X connect 17 0 18 0;
#X connect 18 0 0 0;
#X connect 19 0 25 0;
#X connect 19 0 22 0;
#X connect 20 0 19 0;
#X connect 22 0 23 0;
#X connect 23 0 6 0;
#X connect 25 0 26 0;
#X connect 26 0 8 0;
#X connect 27 0 26 0;
#X connect 27 0 23 0;
#X connect 31 0 10 1;
#X connect 32 0 31 0;
#X connect 33 0 10 1;
#X connect 34 0 41 0;
#X connect 35 0 17 0;
#X connect 36 0 35 0;
#X connect 37 0 38 0;
#X connect 38 0 15 0;
#X connect 39 0 20 0;
#X connect 40 0 39 0;
#X connect 41 0 40 0;
#X connect 41 0 36 0;
#X connect 41 0 37 0;
#X connect 43 0 34 0;
#X connect 44 0 27 0;
#X connect 46 0 34 0;
#X coords 0 -1 1 1 160 380 2 200 50;
#X restore 205 157 pd pajarito;
#N canvas 606 62 603 500 pajarito 0;
#X obj 392 70 osc~;
#X obj 392 254 +~;
#X obj 392 288 osc~;
#X text 422 69 moduladora;
#X text 423 286 portadora;
#X obj 392 193 *~;
#X obj 407 128 line~;
#X obj 407 154 *~ 2000;
#X obj 407 350 line~;
#X obj 392 387 *~;
#X obj 392 413 *~;
#X text 390 47 Freq moduladora;
#X text 405 234 Freq Portadora;
#X text 418 412 Volumen;
#X obj 392 449 outlet~;
#X obj 213 232 hsl 80 15 2000 8000 0 0 empty empty frecuencia_portadora
-2 -8 0 10 -262144 -1 -1 4894 1;
#X floatatom 303 232 5 0 0 1 _Hz - -;
#X obj 215 97 hsl 80 15 5 20 0 0 empty empty frecuencia_moduladora
-2 -8 0 10 -262144 -1 -1 2107 1;
#X floatatom 304 96 4 0 0 1 _Hz - -;
#X floatatom 306 367 5 0 0 1 _ms - -;
#X obj 216 368 hsl 80 15 300 1500 0 1 empty empty duración -2 -8 0
10 -262144 -1 -1 2857 1;
#X text 211 117 amplitud_moduladora;
#X msg 211 135 duration \$1;
#X obj 213 136 envgen 128 64 1 0 amp_x2 amp_m_e;
#X text 208 256 amplitud_portadora;
#X msg 211 278 duration \$1;
#X obj 213 277 envgen 128 64 1 0 amp_x2 amp_p_e;
#X obj 292 396 bng 25 250 50 0 empty empty Play 30 12 0 10 -262144
-1 -1;
#X text 407 105 Amplitud Moduladora;
#X text 406 329 Amplitud Portadora;
#X text 202 449 FMSimple con GUI | JL_2021;
#X msg 468 374 1;
#X obj 468 350 loadbang;
#X obj 507 374 inlet;
#X obj 213 396 bng 25 250 50 0 empty empty Random 30 12 0 10 -262144
-1 -1;
#X obj 82 138 + 5;
#X obj 82 112 random 21;
#X obj 80 200 random 6001;
#X obj 80 225 + 2000;
#X obj 78 314 + 300;
#X obj 78 287 random 1200;
#X msg 153 142 bang;
#X text 211 57 Pajarito v2 | JL_2021;
#X obj 75 413 loadbang;
#X obj 74 357 inlet;
#X text 111 356 Play;
#X obj 82 387 inlet;
#X text 119 386 Random;
#X connect 0 0 5 0;
#X connect 1 0 2 0;
#X connect 2 0 9 0;
#X connect 5 0 1 0;
#X connect 6 0 7 0;
#X connect 7 0 5 1;
#X connect 8 0 9 1;
#X connect 9 0 10 0;
#X connect 10 0 14 0;
#X connect 15 0 16 0;
#X connect 16 0 1 1;
#X connect 17 0 18 0;
#X connect 18 0 0 0;
#X connect 19 0 25 0;
#X connect 19 0 22 0;
#X connect 20 0 19 0;
#X connect 22 0 23 0;
#X connect 23 0 6 0;
#X connect 25 0 26 0;
#X connect 26 0 8 0;
#X connect 27 0 26 0;
#X connect 27 0 23 0;
#X connect 31 0 10 1;
#X connect 32 0 31 0;
#X connect 33 0 10 1;
#X connect 34 0 41 0;
#X connect 35 0 17 0;
#X connect 36 0 35 0;
#X connect 37 0 38 0;
#X connect 38 0 15 0;
#X connect 39 0 20 0;
#X connect 40 0 39 0;
#X connect 41 0 40 0;
#X connect 41 0 36 0;
#X connect 41 0 37 0;
#X connect 43 0 34 0;
#X connect 44 0 27 0;
#X connect 46 0 34 0;
#X coords 0 -1 1 1 160 380 2 200 50;
#X restore 378 157 pd pajarito;
#N canvas 329 132 603 500 pajarito 0;
#X obj 392 70 osc~;
#X obj 392 254 +~;
#X obj 392 288 osc~;
#X text 422 69 moduladora;
#X text 423 286 portadora;
#X obj 392 193 *~;
#X obj 407 128 line~;
#X obj 407 154 *~ 2000;
#X obj 407 350 line~;
#X obj 392 387 *~;
#X obj 392 413 *~;
#X text 390 47 Freq moduladora;
#X text 405 234 Freq Portadora;
#X text 418 412 Volumen;
#X obj 392 449 outlet~;
#X obj 213 232 hsl 80 15 2000 8000 0 0 empty empty frecuencia_portadora
-2 -8 0 10 -262144 -1 -1 1018 1;
#X floatatom 303 232 5 0 0 1 _Hz - -;
#X obj 215 97 hsl 80 15 5 20 0 0 empty empty frecuencia_moduladora
-2 -8 0 10 -262144 -1 -1 3687 1;
#X floatatom 304 96 4 0 0 1 _Hz - -;
#X floatatom 306 367 5 0 0 1 _ms - -;
#X obj 216 368 hsl 80 15 300 1500 0 1 empty empty duración -2 -8 0
10 -262144 -1 -1 1106 1;
#X text 211 117 amplitud_moduladora;
#X msg 211 135 duration \$1;
#X obj 213 136 envgen 128 64 1 0 amp_x2 amp_m_e;
#X text 208 256 amplitud_portadora;
#X msg 211 278 duration \$1;
#X obj 213 277 envgen 128 64 1 0 amp_x2 amp_p_e;
#X obj 292 396 bng 25 250 50 0 empty empty Play 30 12 0 10 -262144
-1 -1;
#X text 407 105 Amplitud Moduladora;
#X text 406 329 Amplitud Portadora;
#X text 202 449 FMSimple con GUI | JL_2021;
#X msg 468 374 1;
#X obj 468 350 loadbang;
#X obj 507 374 inlet;
#X obj 213 396 bng 25 250 50 0 empty empty Random 30 12 0 10 -262144
-1 -1;
#X obj 82 138 + 5;
#X obj 82 112 random 21;
#X obj 80 200 random 6001;
#X obj 80 225 + 2000;
#X obj 78 314 + 300;
#X obj 78 287 random 1200;
#X msg 153 142 bang;
#X text 211 57 Pajarito v2 | JL_2021;
#X obj 79 417 loadbang;
#X obj 78 361 inlet;
#X text 115 360 Play;
#X obj 86 391 inlet;
#X text 123 390 Random;
#X connect 0 0 5 0;
#X connect 1 0 2 0;
#X connect 2 0 9 0;
#X connect 5 0 1 0;
#X connect 6 0 7 0;
#X connect 7 0 5 1;
#X connect 8 0 9 1;
#X connect 9 0 10 0;
#X connect 10 0 14 0;
#X connect 15 0 16 0;
#X connect 16 0 1 1;
#X connect 17 0 18 0;
#X connect 18 0 0 0;
#X connect 19 0 25 0;
#X connect 19 0 22 0;
#X connect 20 0 19 0;
#X connect 22 0 23 0;
#X connect 23 0 6 0;
#X connect 25 0 26 0;
#X connect 26 0 8 0;
#X connect 27 0 26 0;
#X connect 27 0 23 0;
#X connect 31 0 10 1;
#X connect 32 0 31 0;
#X connect 33 0 10 1;
#X connect 34 0 41 0;
#X connect 35 0 17 0;
#X connect 36 0 35 0;
#X connect 37 0 38 0;
#X connect 38 0 15 0;
#X connect 39 0 20 0;
#X connect 40 0 39 0;
#X connect 41 0 40 0;
#X connect 41 0 36 0;
#X connect 41 0 37 0;
#X connect 43 0 34 0;
#X connect 44 0 27 0;
#X connect 46 0 34 0;
#X coords 0 -1 1 1 160 380 2 200 50;
#X restore 550 157 pd pajarito;
#N canvas 405 28 318 360 randomTrigger 0;
#X obj -202 59 tgl 30 0 empty empty empty 17 7 0 10 -262144 -1 -1 0
1;
#X obj -205 215 bng 15 250 50 0 empty empty empty 17 7 0 10 -262144
-1 -1;
#X obj -178 215 bng 15 250 50 0 empty empty empty 17 7 0 10 -262144
-1 -1;
#X obj -149 215 bng 15 250 50 0 empty empty empty 17 7 0 10 -262144
-1 -1;
#X obj -119 215 bng 15 250 50 0 empty empty empty 17 7 0 10 -262144
-1 -1;
#X obj -205 174 sel 0 1 2 3;
#X floatatom -177 150 5 0 0 0 - - -;
#X obj -115 61 bng 15 250 50 0 empty empty empty 17 7 0 10 -262144
-1 -1;
#X obj -202 96 metro 1000;
#X obj -115 115 + 1000;
#X obj -202 16 inlet;
#X text -161 17 Bang para ON;
#X obj -205 123 drunk 3;
#X obj -17 88 inlet;
#X text 21 88 Separación;
#X obj -115 87 random 2000;
#X obj -205 244 outlet;
#X obj -178 269 outlet;
#X obj -119 322 outlet;
#X obj -149 297 outlet;
#X text -63 323 RandomTrigger | JL_2021;
#X connect 0 0 8 0;
#X connect 1 0 16 0;
#X connect 2 0 17 0;
#X connect 3 0 19 0;
#X connect 4 0 18 0;
#X connect 5 0 1 0;
#X connect 5 1 2 0;
#X connect 5 2 3 0;
#X connect 5 3 4 0;
#X connect 7 0 15 0;
#X connect 8 0 7 0;
#X connect 8 0 12 0;
#X connect 9 0 8 1;
#X connect 10 0 0 0;
#X connect 12 0 5 0;
#X connect 12 0 6 0;
#X connect 13 0 9 1;
#X connect 15 0 9 0;
#X restore 31 94 pd randomTrigger;
#X obj 543 566 cnv 15 80 100 empty empty empty 20 12 0 14 -204786 -66577
0;
#N canvas 875 441 368 300 eco 0;
#X obj -180 -25 lop~ 3000;
#X obj -184 -157 inlet~;
#X obj -214 58 outlet~;
#X obj -300 -26 *~;
#X obj -285 -97 loadbang;
#X floatatom -285 -50 5 0 0 0 - - -;
#X obj -184 -122 delwrite~ eco 2000;
#X obj -180 6 *~ 0.8;
#X msg -285 -74 0.1;
#X text -302 91 Eco basado en ejercicio G.6.3 de Pablo Cetta | JL_2021
;
#X obj -180 -85 inlet;
#X obj -180 -56 delread~ eco 200;
#X connect 0 0 7 0;
#X connect 0 0 3 0;
#X connect 1 0 6 0;
#X connect 3 0 6 0;
#X connect 4 0 8 0;
#X connect 5 0 3 1;
#X connect 7 0 2 0;
#X connect 8 0 5 0;
#X connect 10 0 11 0;
#X connect 11 0 0 0;
#X restore 550 606 pd eco;
#X obj 550 577 /~ 4;
#X floatatom 583 577 5 200 1000 0 - - -;
#X obj 550 637 dac~;
#X text 109 62 Dist. Trigger (ms);
#X obj 143 33 bng 20 250 50 0 empty empty empty 17 7 0 10 -262144 -1
-1;
#X text 55 34 Play Bandada;
#X text 167 35 Random Pajarito(s);
#X obj 31 32 tgl 20 0 empty empty empty 17 7 0 10 -262144 -1 -1 0 1
;
#X connect 1 0 6 1;
#X connect 2 0 9 0;
#X connect 3 0 9 0;
#X connect 4 0 9 0;
#X connect 5 0 9 0;
#X connect 6 0 2 0;
#X connect 6 1 3 0;
#X connect 6 2 4 0;
#X connect 6 3 5 0;
#X connect 8 0 11 0;
#X connect 8 0 11 1;
#X connect 9 0 8 0;
#X connect 10 0 8 1;
#X connect 13 0 2 1;
#X connect 13 0 3 1;
#X connect 13 0 4 1;
#X connect 13 0 5 1;
#X connect 16 0 6 0;
