#N canvas 146 23 828 714 10;
#X obj 56 189 pajarito;
#X obj 244 189 pajarito;
#X obj 433 190 pajarito;
#X obj 622 190 pajarito;
#X obj 409 633 /~ 4;
#X obj 409 673 dac~;
#X obj 373 5 tgl 30 0 empty empty empty 17 7 0 10 -262144 -1 -1 0 1
;
#X obj 320 141 bng 15 250 50 0 empty empty empty 17 7 0 10 -262144
-1 -1;
#X obj 367 141 bng 15 250 50 0 empty empty empty 17 7 0 10 -262144
-1 -1;
#X obj 416 141 bng 15 250 50 0 empty empty empty 17 7 0 10 -262144
-1 -1;
#X obj 466 142 bng 15 250 50 0 empty empty empty 17 7 0 10 -262144
-1 -1;
#X obj 370 100 sel 0 1 2 3;
#X floatatom 323 68 5 0 0 0 - - -;
#X obj 460 7 bng 15 250 50 0 empty empty empty 17 7 0 10 -262144 -1
-1;
#X obj 373 42 metro 1000;
#X obj 370 69 drunk 4;
#X obj 460 61 + 1000;
#X obj 460 33 random 1000;
#X text 60 97 Bandada v1 | JL_2021;
#X connect 0 0 4 0;
#X connect 1 0 4 0;
#X connect 2 0 4 0;
#X connect 3 0 4 0;
#X connect 4 0 5 0;
#X connect 4 0 5 1;
#X connect 6 0 14 0;
#X connect 7 0 0 0;
#X connect 8 0 1 0;
#X connect 9 0 2 0;
#X connect 10 0 3 0;
#X connect 11 0 7 0;
#X connect 11 1 8 0;
#X connect 11 2 9 0;
#X connect 11 3 10 0;
#X connect 13 0 17 0;
#X connect 14 0 13 0;
#X connect 14 0 15 0;
#X connect 15 0 11 0;
#X connect 15 0 12 0;
#X connect 16 0 14 1;
#X connect 17 0 16 0;
