#N canvas 455 114 597 515 10;
#X obj 390 69 osc~;
#X obj 390 253 +~;
#X obj 390 287 osc~;
#X text 420 68 moduladora;
#X text 421 285 portadora;
#X obj 390 192 *~;
#X obj 405 127 line~;
#X obj 405 153 *~ 2000;
#X obj 405 349 line~;
#X obj 390 386 *~;
#X obj 390 412 *~;
#X text 388 46 Freq moduladora;
#X text 403 233 Freq Portadora;
#X text 416 411 Volumen;
#X obj 211 231 hsl 80 15 2000 8000 0 0 empty empty frecuencia_portadora
-2 -8 0 10 -262144 -1 -1 1726 1;
#X floatatom 301 231 5 0 0 1 _Hz - -;
#X obj 213 96 hsl 80 15 5 20 0 0 empty empty frecuencia_moduladora
-2 -8 0 10 -262144 -1 -1 6320 1;
#X floatatom 302 95 4 0 0 1 _Hz - -;
#X floatatom 304 366 5 0 0 1 _ms - -;
#X obj 214 367 hsl 80 15 300 1500 0 1 empty empty duración -2 -8 0
10 -262144 -1 -1 5398 1;
#X text 209 116 amplitud_moduladora;
#X msg 209 134 duration \$1;
#X obj 211 135 envgen 128 64 1 0 amp_x2 amp_m_e;
#X text 206 255 amplitud_portadora;
#X msg 209 277 duration \$1;
#X obj 211 276 envgen 128 64 1 0 amp_x2 amp_p_e;
#X obj 290 395 bng 25 250 50 0 empty empty Play 30 12 0 10 -262144
-1 -1;
#X text 405 104 Amplitud Moduladora;
#X text 404 328 Amplitud Portadora;
#X text 200 448 FMSimple con GUI | JL_2021;
#X msg 466 373 1;
#X obj 466 349 loadbang;
#X obj 505 373 inlet;
#X obj 211 395 bng 25 250 50 0 empty empty Random 30 12 0 10 -262144
-1 -1;
#X obj 80 137 + 5;
#X obj 80 111 random 21;
#X obj 78 199 random 6001;
#X obj 78 224 + 2000;
#X obj 76 313 + 300;
#X obj 23 34 loadbang;
#X obj 76 286 random 1200;
#X text 209 56 Pajarito v1 | JL_2021;
#X msg 151 141 bang;
#X msg 43 86 seed \$1;
#X msg 43 58 17;
#X msg 38 167 seed \$1;
#X msg 38 139 59;
#X msg 24 261 seed \$1;
#X obj 390 448 dac~;
#X msg 24 233 100;
#X connect 0 0 5 0;
#X connect 1 0 2 0;
#X connect 2 0 9 0;
#X connect 5 0 1 0;
#X connect 6 0 7 0;
#X connect 7 0 5 1;
#X connect 8 0 9 1;
#X connect 9 0 10 0;
#X connect 10 0 48 0;
#X connect 10 0 48 1;
#X connect 14 0 15 0;
#X connect 15 0 1 1;
#X connect 16 0 17 0;
#X connect 17 0 0 0;
#X connect 18 0 24 0;
#X connect 18 0 21 0;
#X connect 19 0 18 0;
#X connect 21 0 22 0;
#X connect 22 0 6 0;
#X connect 24 0 25 0;
#X connect 25 0 8 0;
#X connect 26 0 25 0;
#X connect 26 0 22 0;
#X connect 30 0 10 1;
#X connect 31 0 30 0;
#X connect 32 0 10 1;
#X connect 33 0 42 0;
#X connect 34 0 16 0;
#X connect 35 0 34 0;
#X connect 36 0 37 0;
#X connect 37 0 14 0;
#X connect 38 0 19 0;
#X connect 39 0 44 0;
#X connect 39 0 46 0;
#X connect 39 0 49 0;
#X connect 40 0 38 0;
#X connect 42 0 40 0;
#X connect 42 0 35 0;
#X connect 42 0 36 0;
#X connect 43 0 35 0;
#X connect 44 0 43 0;
#X connect 45 0 36 0;
#X connect 46 0 45 0;
#X connect 47 0 40 0;
#X connect 49 0 47 0;
#X coords 0 -1 1 1 160 380 2 200 50;
